<svg width="14" height="14" viewBox="0 0 14 14" fill="none" xmlns="http://www.w3.org/2000/svg">
<path d="M13.0208 1.70712C13.4113 1.3166 13.4113 0.683432 13.0208 0.292908C12.6303 -0.0976165 11.9971 -0.0976166 11.6066 0.292908L6.65687 5.24264L1.70713 0.292893C1.3166 -0.0976309 0.683438 -0.0976313 0.292914 0.292893C-0.0976103 0.683417 -0.0976106 1.31658 0.292914 1.70711L5.24266 6.65685L0.292893 11.6066C-0.0976308 11.9971 -0.0976312 12.6303 0.292893 13.0208C0.683417 13.4114 1.31658 13.4114 1.70711 13.0208L6.65687 8.07107L11.6066 13.0208C11.9971 13.4113 12.6303 13.4113 13.0208 13.0208C13.4114 12.6303 13.4114 11.9971 13.0208 11.6066L8.07108 6.65685L13.0208 1.70712Z" fill="white"/>
</svg>
