<svg width="21" height="21" viewBox="0 0 21 21" fill="none" xmlns="http://www.w3.org/2000/svg"><path fill-rule="evenodd" clip-rule="evenodd" d="M12.6967 3.5C13.9748 3.5 15.1796 4.00095 16.0893 4.91066C16.9989 5.82027 17.5 7.02521 17.5 8.30331V12.6966C17.5 13.9748 16.9989 15.1797 16.0893 16.0893C15.1797 16.9991 13.9748 17.5 12.6967 17.5H8.30331C7.02521 17.5 5.82027 16.9991 4.91066 16.0893C4.00095 15.1797 3.5 13.9748 3.5 12.6966V8.30331C3.5 7.02521 4.00095 5.82027 4.91066 4.91066C5.82027 4.00095 7.02521 3.5 8.30331 3.5H12.6967ZM6.79492 10.5C6.79492 12.543 8.45702 14.2051 10.5 14.2051C12.543 14.2051 14.2051 12.543 14.2051 10.5C14.2051 8.45702 12.543 6.79492 10.5 6.79492C8.45702 6.79492 6.79492 8.45702 6.79492 10.5ZM14.3146 7.0956C14.4224 7.0956 14.5283 7.0518 14.6046 6.97554C14.6809 6.89917 14.7247 6.79332 14.7247 6.68544C14.7247 6.57745 14.6809 6.4716 14.6046 6.39534C14.5283 6.31897 14.4224 6.27528 14.3146 6.27528C14.2065 6.27528 14.1009 6.31897 14.0247 6.39534C13.9481 6.4716 13.9044 6.57745 13.9044 6.68544C13.9044 6.79343 13.9481 6.89917 14.0247 6.97554C14.1009 7.0518 14.2066 7.0956 14.3146 7.0956ZM8.75 10.5C8.75 9.53506 9.53506 8.75 10.5 8.75C11.465 8.75 12.25 9.53506 12.25 10.5C12.25 11.4649 11.4649 12.25 10.5 12.25C9.53506 12.25 8.75 11.4649 8.75 10.5Z" fill="white"/></svg>