<svg width="26" height="20" viewBox="0 0 26 20" fill="none" xmlns="http://www.w3.org/2000/svg"><path d="M4.73644 19.95V18.65C4.78683 18.2 4.43412 17.85 3.98063 17.8C3.93024 17.8 3.93024 17.8 3.87985 17.8C3.57753 17.8 3.2752 17.9 3.12404 18.2C2.97288 17.95 2.72094 17.8 2.41861 17.8C2.16668 17.8 1.91474 17.9 1.81396 18.1V17.85H1.36047V19.95H1.81396V18.75C1.76357 18.5 1.96512 18.25 2.26745 18.2H2.31784C2.62016 18.2 2.77133 18.4 2.77133 18.75V19.95H3.22481V18.75C3.17443 18.5 3.37598 18.25 3.6783 18.2H3.72869C4.03102 18.2 4.18218 18.4 4.18218 18.75V19.95H4.73644ZM11.6899 17.85H10.9341V17.2H10.4302V17.85H9.97675V18.25H10.4302V19.2C10.4302 19.7 10.6318 20 11.1861 20C11.3876 20 11.5892 19.95 11.7907 19.85L11.6395 19.45C11.5388 19.5 11.3876 19.55 11.2364 19.55C10.9845 19.55 10.9341 19.4 10.9341 19.2V18.25H11.6899V17.85ZM15.6202 17.8C15.3682 17.8 15.1667 17.9 15.0659 18.1V17.85H14.6124V19.95H15.0659V18.75C15.0659 18.4 15.2171 18.2 15.5194 18.2C15.6202 18.2 15.7209 18.2 15.8217 18.25L15.9729 17.8C15.8721 17.8 15.7209 17.8 15.6202 17.8ZM9.67443 18C9.42249 17.85 9.12016 17.75 8.81784 17.8C8.26357 17.8 7.91086 18.05 7.91086 18.45C7.91086 18.8 8.1628 19 8.66668 19.05L8.86823 19.1C9.12016 19.15 9.22094 19.2 9.22094 19.3C9.22094 19.4 9.06978 19.55 8.71706 19.55C8.46512 19.55 8.21319 19.5 8.01164 19.35L7.81009 19.7C8.06202 19.9 8.41474 20 8.71706 19.95C9.32171 19.95 9.67443 19.65 9.67443 19.25C9.67443 18.85 9.3721 18.7 8.91861 18.6L8.71706 18.55C8.51551 18.55 8.36435 18.5 8.36435 18.35C8.36435 18.2 8.51551 18.1 8.76745 18.1C9.01939 18.1 9.22094 18.15 9.42249 18.3L9.67443 18ZM22.0698 17.8C21.8178 17.8 21.6163 17.9 21.5155 18.1V17.85H21.062V19.95H21.5155V18.75C21.5155 18.4 21.6667 18.2 21.969 18.2C22.0698 18.2 22.1706 18.2 22.2713 18.25L22.4225 17.8C22.3217 17.8 22.1706 17.8 22.0698 17.8ZM16.124 18.9C16.124 19.5 16.5775 20 17.1822 20C17.2326 20 17.2326 20 17.283 20C17.5853 20 17.8372 19.9 18.0388 19.75L17.8372 19.4C17.6861 19.5 17.4845 19.6 17.283 19.6C16.9302 19.55 16.6279 19.25 16.6783 18.85C16.7287 18.5 16.9806 18.25 17.283 18.25C17.4845 18.25 17.6861 18.3 17.8372 18.45L18.0388 18.1C17.8372 17.95 17.5349 17.85 17.283 17.85C16.6783 17.8 16.1744 18.25 16.124 18.9C16.124 18.85 16.124 18.85 16.124 18.9ZM20.4574 18.9V17.85H20.0039V18.1C19.8527 17.9 19.6008 17.8 19.3488 17.8C18.7442 17.85 18.2907 18.4 18.3411 19C18.3915 19.55 18.7946 19.95 19.3488 20C19.6008 20 19.8527 19.9 20.0039 19.7V19.95H20.4574V18.9ZM18.7442 18.9C18.7442 18.55 19.0465 18.3 19.3992 18.3C19.7519 18.3 20.0039 18.6 20.0039 18.95C20.0039 19.3 19.7016 19.55 19.3488 19.55C18.9961 19.55 18.7442 19.3 18.7442 18.9ZM13.1008 17.8C12.4961 17.8 11.9923 18.3 11.9923 18.9C11.9923 19.5 12.4961 20 13.1008 20C13.4031 20 13.7558 19.9 13.9574 19.7L13.7558 19.35C13.6047 19.5 13.3527 19.55 13.1512 19.55C12.8488 19.6 12.5465 19.35 12.4961 19.05H14.1085C14.1085 19 14.1085 18.95 14.1085 18.9C14.1589 18.35 13.7558 17.85 13.2016 17.8C13.2016 17.8 13.1512 17.8 13.1008 17.8ZM13.1008 18.2C13.4031 18.2 13.6047 18.4 13.655 18.7H12.5465C12.5969 18.4 12.8488 18.2 13.1008 18.2ZM24.7403 18.9V17H24.2868V18.1C24.1357 17.9 23.8837 17.8 23.6318 17.8C23.0271 17.85 22.5737 18.4 22.624 19C22.6744 19.55 23.0775 19.95 23.6318 20C23.8837 20 24.1357 19.9 24.2868 19.7V19.95H24.7403V18.9ZM23.0271 18.9C23.0271 18.55 23.3295 18.3 23.6822 18.3C24.0349 18.3 24.2868 18.6 24.2868 18.95C24.2868 19.3 23.9845 19.55 23.6318 19.55C23.2791 19.55 22.9768 19.3 23.0271 18.9ZM7.3566 18.9V17.85H6.90311V18.1C6.75195 17.9 6.50001 17.8 6.24807 17.8C5.64342 17.85 5.18993 18.4 5.24032 19C5.29071 19.55 5.69381 19.95 6.24807 20C6.50001 20 6.75195 19.9 6.90311 19.7V19.95H7.3566V18.9ZM5.64342 18.9C5.64342 18.55 5.94574 18.3 6.29846 18.3C6.65117 18.3 6.90311 18.6 6.90311 18.95C6.90311 19.3 6.60078 19.55 6.24807 19.55C5.94574 19.55 5.64342 19.3 5.64342 18.9Z" fill="white"/><path d="M16.5272 1.70001H9.52332V14.25H16.5272V1.70001Z" fill="white"/><path d="M9.92637 7.95001C9.92637 5.50001 11.0349 3.20001 13 1.70001C9.52327 -0.99999 4.48451 -0.399991 1.71319 3.05001C-1.00774 6.50001 -0.403085 11.5 3.07366 14.25C5.99614 16.5 10.0775 16.5 13 14.25C11.0349 12.75 9.92637 10.4 9.92637 7.95001Z" fill="white"/><path d="M26 7.95001C26 12.35 22.4225 15.9 17.9884 15.9C16.1744 15.9 14.4612 15.3 13.0504 14.2C16.4767 11.5 17.0814 6.50001 14.3605 3.05001C13.9574 2.55001 13.5039 2.10001 13 1.70001C16.4767 -0.99999 21.5659 -0.399991 24.2868 3.05001C25.3953 4.45001 26 6.20001 26 7.95001Z" fill="white"/></svg>