<svg width="86" height="20" viewBox="0 0 86 20" fill="none" xmlns="http://www.w3.org/2000/svg">
<path d="M0 15.547H2.19631V13.514H0V15.547ZM3.13213 15.547H5.32845V11.5392H3.13213V15.547ZM6.26427 15.547H8.46058V9.56438H6.26427V15.547ZM9.3964 15.547H11.5927V7.58954H9.3964V15.547ZM20.9127 12.9526C20.9127 11.5392 19.7286 10.3775 18.2962 10.3775H16.6156C16.4246 10.3775 16.0235 10.2807 16.0235 9.91288C16.0235 9.52565 16.4246 9.40949 16.6156 9.40949H20.0151V7.55082H16.3673C14.9731 7.55082 13.8272 8.67377 13.8272 10.0484C13.8272 11.423 14.9731 12.546 16.3673 12.546H18.0671C18.2962 12.546 18.7355 12.6621 18.7355 13.1268C18.7355 13.5915 18.3153 13.6883 18.0671 13.6883H14.5148V15.547H18.2962C19.7286 15.5276 20.9127 14.3659 20.9127 12.9526ZM27.96 11.5586C27.96 12.7202 27.0242 13.6496 25.8974 13.6496C24.7515 13.6496 23.8348 12.7009 23.8348 11.5586C23.8348 10.4163 24.7706 9.46757 25.8974 9.46757C27.0242 9.44821 27.96 10.3969 27.96 11.5586ZM30.1563 11.5586C30.1563 9.17715 28.2465 7.24105 25.8974 7.24105C24.7706 7.24105 23.7584 7.68635 22.9944 8.40271V7.55082H21.6194V20H23.8157V15.334C24.4268 15.6825 25.1335 15.8761 25.8783 15.8761C28.2465 15.8761 30.1563 13.94 30.1563 11.5586ZM37.07 11.5586C37.07 12.7202 36.1341 13.6496 35.0073 13.6496C33.8614 13.6496 32.9256 12.7009 32.9256 11.5586C32.9256 10.4163 33.8614 9.46757 35.0073 9.46757C36.1532 9.44821 37.07 10.3969 37.07 11.5586ZM39.2663 11.5586C39.2663 9.17715 37.3564 7.24105 35.0073 7.24105C32.6582 7.24105 30.7484 9.17715 30.7484 11.5586C30.7484 13.94 32.6582 15.8761 35.0073 15.8761C37.3564 15.8761 39.2663 13.94 39.2663 11.5586ZM44.4992 9.50629H45.3014V7.27977H44.4992C43.3724 7.27977 42.3602 7.72507 41.5963 8.44143V7.60891H40.2212V15.5857H42.4175V11.6166C42.4175 10.4356 43.3533 9.50629 44.4992 9.50629ZM48.2807 9.44821H49.9805V7.22168H48.2807V3.44627H46.0844V15.5276H48.2807V9.44821ZM57.2569 11.5586C57.2569 12.7202 56.3211 13.6496 55.1943 13.6496C54.0484 13.6496 53.1317 12.7009 53.1317 11.5586C53.1317 10.4163 54.0675 9.46757 55.1943 9.46757C56.3402 9.44821 57.2569 10.3969 57.2569 11.5586ZM59.4533 11.5586C59.4533 9.17715 57.5434 7.24105 55.1943 7.24105C54.4304 7.24105 53.7046 7.45402 53.0935 7.80252V0H50.8972V15.5082H52.2723V14.6951C53.0362 15.4308 54.0675 15.8761 55.1943 15.8761C57.5434 15.8761 59.4533 13.94 59.4533 11.5586ZM66.596 11.5586C66.596 12.7202 65.6602 13.6496 64.5334 13.6496C63.3875 13.6496 62.4708 12.7009 62.4708 11.5586C62.4708 10.4163 63.4066 9.46757 64.5334 9.46757C65.6602 9.44821 66.596 10.3969 66.596 11.5586ZM67.4173 15.5082H68.7924V7.57018H67.4173V8.40271C66.6533 7.68635 65.6411 7.24105 64.5143 7.24105C62.1652 7.24105 60.2554 9.17715 60.2554 11.5586C60.2554 13.94 62.1652 15.8761 64.5143 15.8761C65.6411 15.8761 66.6533 15.4308 67.4173 14.7144V15.5082ZM74.942 15.5276H77.1384V11.0165C77.1384 8.94482 75.4768 7.26041 73.4142 7.26041C72.5165 7.26041 71.7144 7.57018 71.0651 8.11229V7.55082H69.69V10.5518V15.4889V15.5082H71.8863V10.9777C71.8863 10.1258 72.5738 9.42885 73.4142 9.42885C74.2545 9.42885 74.942 10.1258 74.942 10.9777V15.5276ZM83.1734 11.2294L85.618 7.55082H82.9634L81.2445 10.1258H80.2896V0H78.0933V15.5082H80.2896V12.3524H81.2445L83.3453 15.5082H86L83.1734 11.2294Z" fill="white"/>
</svg>
