<svg width="21" height="21" viewBox="0 0 21 21" fill="none" xmlns="http://www.w3.org/2000/svg"><g clip-path="url(#clip0)"><path fill-rule="evenodd" clip-rule="evenodd" d="M16.086 19.9316C16.3677 20.1311 16.7309 20.181 17.0546 20.0585C17.3784 19.9351 17.6164 19.6586 17.6881 19.3235C18.4485 15.75 20.293 6.70513 20.9851 3.45451C21.0376 3.20951 20.9501 2.95488 20.7576 2.79126C20.5651 2.62763 20.2982 2.58038 20.0602 2.66876C16.3914 4.02676 5.09248 8.26613 0.474232 9.97501C0.181107 10.0835 -0.00964309 10.3653 -1.80889e-05 10.6741C0.0104819 10.9839 0.218732 11.2525 0.518857 11.3426C2.58998 11.9621 5.30861 12.824 5.30861 12.824C5.30861 12.824 6.57911 16.6609 7.24148 18.6121C7.32461 18.8571 7.51623 19.0496 7.76911 19.1161C8.02111 19.1818 8.29061 19.1126 8.47873 18.935C9.54273 17.9305 11.1877 16.3774 11.1877 16.3774C11.1877 16.3774 14.3132 18.669 16.086 19.9316ZM6.45223 12.3393L7.92136 17.185L8.24773 14.1164C8.24773 14.1164 13.9239 8.99676 17.1596 6.07863C17.2541 5.99288 17.2672 5.84938 17.1885 5.74876C17.1106 5.64813 16.9671 5.62451 16.8595 5.69276C13.1092 8.08763 6.45223 12.3393 6.45223 12.3393Z" fill="white"/></g><defs><clipPath id="clip0"><rect width="21" height="21" fill="white"/></clipPath></defs></svg>