<svg width="20" height="20" viewBox="0 0 20 20" fill="none" xmlns="http://www.w3.org/2000/svg"><path d="M12.5 4.16668V3.33334H10.8333V12.5C10.8333 13.8788 9.71208 15 8.33329 15C6.95451 15 5.83329 13.8788 5.83329 12.5C5.83329 11.1212 6.95451 10 8.33329 10H9.16663V8.33334H8.33329C6.03573 8.33334 4.16663 10.2024 4.16663 12.5C4.16663 14.7976 6.03573 16.6667 8.33329 16.6667C10.6309 16.6667 12.5 14.7976 12.5 12.5V7.49208C13.1974 8.01759 14.0612 8.33334 15 8.33334H15.8333V6.66668H15C13.6212 6.66668 12.5 5.54546 12.5 4.16668Z" fill="white"/><path d="M0 20H20V0H0V20ZM1.66667 1.66667H18.3333V18.3333H1.66667V1.66667Z" fill="white"/></svg>