<svg width="20" height="20" viewBox="0 0 20 20" fill="none" xmlns="http://www.w3.org/2000/svg"><g clip-path="url(#clip0)"><path d="M19.2958 11.5775C19.8925 6.55499 19.0092 3.38416 17.4158 1.94999L17.4167 1.94916C14.845 -0.50001 6.16001 -0.86251 3.08334 2.05916C1.70167 3.48832 1.21501 5.58582 1.16167 8.18249C1.10834 10.78 1.04501 15.6458 5.57917 16.9658H5.58334L5.57917 18.9817C5.57917 18.9817 5.54834 19.7983 6.07 19.9625C6.66667 20.1558 6.93667 19.7767 8.7925 17.56C11.8958 17.8292 14.2792 17.2125 14.55 17.1225C15.1767 16.9125 18.7225 16.4433 19.2958 11.5775ZM9.09834 16.1417C9.09834 16.1417 7.13417 18.5908 6.52334 19.2267C6.32334 19.4333 6.10417 19.4142 6.1075 19.0042C6.1075 18.735 6.1225 15.6575 6.1225 15.6575C2.27834 14.5558 2.50501 10.4125 2.54667 8.24499C2.58834 6.07666 2.98501 4.30082 4.15501 3.10499C6.85417 0.574157 14.4683 1.13999 16.4083 2.96332C18.78 5.06582 17.9358 11.0058 17.9408 11.2083C17.4533 15.27 14.58 15.5275 14.0517 15.7033C13.8258 15.7783 11.73 16.3175 9.09834 16.1417Z" fill="white"/><path d="M10.185 3.58084C9.86419 3.58084 9.86419 4.08084 10.185 4.08501C12.6742 4.10417 14.7242 5.83917 14.7467 9.02167C14.7467 9.35751 15.2384 9.35334 15.2342 9.01751H15.2334C15.2067 5.58834 12.9684 3.60001 10.185 3.58084Z" fill="white"/><path d="M13.4591 8.49417C13.4516 8.82583 13.9425 8.84167 13.9466 8.50583C13.9875 6.615 12.8216 5.0575 10.6308 4.89333C10.31 4.87 10.2766 5.37417 10.5966 5.3975C12.4966 5.54167 13.4975 6.83833 13.4591 8.49417Z" fill="white"/><path d="M12.9342 10.645C12.5225 10.4066 12.1034 10.555 11.93 10.7891L11.5675 11.2583C11.3834 11.4966 11.0392 11.465 11.0392 11.465C8.52754 10.8008 7.85587 8.17247 7.85587 8.17247C7.85587 8.17247 7.82504 7.81664 8.05504 7.62581L8.50837 7.25081C8.73504 7.07081 8.87837 6.63747 8.64754 6.21164C8.03087 5.09747 7.6167 4.71331 7.40587 4.41831C7.1842 4.14081 6.85087 4.07831 6.5042 4.26581H6.4967C5.77587 4.68747 4.9867 5.47664 5.2392 6.28914C5.67004 7.14581 6.4617 9.87664 8.98504 11.94C10.1709 12.9158 12.0475 13.9158 12.8442 14.1466L12.8517 14.1583C13.6367 14.42 14.4 13.6 14.8075 12.8575V12.8516C14.9884 12.4925 14.9284 12.1525 14.6642 11.93C14.1959 11.4733 13.4892 10.9691 12.9342 10.645Z" fill="white"/><path d="M10.9742 6.7533C11.775 6.79996 12.1634 7.2183 12.205 8.07746C12.22 8.4133 12.7075 8.38996 12.6925 8.05413C12.6392 6.93246 12.0542 6.30746 11.0009 6.24913C10.68 6.22996 10.65 6.73413 10.9742 6.7533Z" fill="white"/></g><defs><clipPath id="clip0"><rect width="20" height="20" fill="white"/></clipPath></defs></svg>