<svg width="40" height="14" viewBox="0 0 40 14" fill="none" xmlns="http://www.w3.org/2000/svg">
<path d="M17.35 13.3H14.1L16.1 0.75H19.35L17.35 13.3Z" fill="white"/>
<path d="M29.1 1.05C28.15 0.7 27.2 0.5 26.2 0.5C23 0.5 20.75 2.2 20.75 4.65C20.75 6.45 22.35 7.45 23.6 8.05C24.85 8.65 25.3 9.05 25.3 9.6C25.3 10.45 24.3 10.85 23.35 10.85C22.3 10.9 21.25 10.65 20.3 10.2L19.8 10L19.35 12.8C20.5 13.25 21.75 13.45 22.95 13.45C26.35 13.45 28.55 11.75 28.6 9.15C28.6 7.7 27.75 6.65 25.9 5.75C24.75 5.2 24.05 4.8 24.05 4.2C24.05 3.6 24.65 3.1 25.9 3.1C26.75 3.1 27.55 3.25 28.3 3.6L28.6 3.75L29.1 1.05Z" fill="white"/>
<path d="M33.4 8.85002L34.7 5.35002C34.7 5.35002 34.95 4.60002 35.1 4.15002L35.3 5.25002C35.3 5.25002 35.9 8.25002 36.05 8.85002H33.4ZM37.4 0.750016H34.9C34.15 0.650016 33.45 1.10002 33.2 1.80002L28.4 13.3H31.8L32.5 11.4H36.65C36.75 11.85 37.05 13.3 37.05 13.3H40.05L37.4 0.750016Z" fill="white"/>
<path d="M11.4 0.75L8.25002 9.3L7.90002 7.55C7.10002 5.3 5.50002 3.45 3.40002 2.3L6.30002 13.25H9.75002L14.85 0.75H11.4Z" fill="white"/>
<path d="M5.25 0.75H0.05L0 1C4.05 2.05 6.75 4.55 7.85 7.55L6.75 1.8C6.55 1 6 0.8 5.25 0.75Z" fill="white"/>
</svg>
