<svg width="20" height="14" viewBox="0 0 20 14" fill="none" xmlns="http://www.w3.org/2000/svg"><g clip-path="url(#clip0)"><path fill-rule="evenodd" clip-rule="evenodd" d="M17.8253 0.428235C18.682 0.658824 19.3574 1.33412 19.5881 2.19059C20.0164 3.75529 19.9999 7.01647 19.9999 7.01647C19.9999 7.01647 19.9999 10.2612 19.5881 11.8259C19.3574 12.6824 18.682 13.3576 17.8253 13.5882C16.2602 14 9.99996 14 9.99996 14C9.99996 14 3.75616 14 2.17462 13.5718C1.31795 13.3412 0.642501 12.6659 0.41186 11.8094C0 10.2612 0 7 0 7C0 7 0 3.75529 0.41186 2.19059C0.642501 1.33412 1.33443 0.642353 2.17462 0.411765C3.73969 0 9.99996 0 9.99996 0C9.99996 0 16.2602 0 17.8253 0.428235ZM8.00657 4.00235L13.2125 7L8.00657 9.99765V4.00235Z" fill="white"/></g><defs><clipPath id="clip0"><rect width="20" height="14" fill="white"/></clipPath></defs></svg>